<?xml version="1.0" standalone="no"?>
<!DOCTYPE svg PUBLIC "-//W3C//DTD SVG 20010904//EN"
 "http://www.w3.org/TR/2001/REC-SVG-20010904/DTD/svg10.dtd">
<svg version="1.0" xmlns="http://www.w3.org/2000/svg"
 width="200.000000pt" height="200.000000pt" viewBox="0 0 200.000000 200.000000"
 preserveAspectRatio="xMidYMid meet">

<g transform="translate(0.000000,200.000000) scale(0.100000,-0.100000)"
fill="#000000" stroke="none">
<path d="M860 1245 l-245 -245 247 -247 247 -247 136 134 c74 74 135 139 135
145 0 5 -47 57 -105 115 -57 58 -105 109 -105 115 0 5 46 56 102 112 l103 103
-130 130 c-71 72 -132 130 -135 130 -3 0 -115 -110 -250 -245z m330 60 l75
-75 -80 -80 -79 -80 -31 30 -31 30 -24 -25 -24 -25 29 -30 29 -30 -69 -70 -70
-70 28 -27 27 -28 68 68 68 67 87 -87 87 -88 -82 -82 c-46 -46 -87 -83 -93
-83 -5 0 -94 84 -197 187 l-188 188 192 192 c106 106 195 193 198 193 3 0 39
-34 80 -75z"/>
</g>
</svg>
